<?xml version="1.0" encoding="iso-8859-1"?>
<!-- Generator: Adobe Illustrator 17.1.0, SVG Export Plug-In . SVG Version: 6.00 Build 0)  -->
<!DOCTYPE svg PUBLIC "-//W3C//DTD SVG 1.1//EN" "http://www.w3.org/Graphics/SVG/1.1/DTD/svg11.dtd">
<svg version="1.1" id="Capa_1" xmlns="http://www.w3.org/2000/svg" xmlns:xlink="http://www.w3.org/1999/xlink" x="0px" y="0px"
	 viewBox="0 0 511 511" style="enable-background:new 0 0 511 511;" xml:space="preserve">
<path d="M503.5,179.999H439v-0.5c0-12.958-10.542-23.5-23.5-23.5s-23.5,10.542-23.5,23.5v0.5h-64.5c-4.142,0-7.5,3.358-7.5,7.5
	s3.358,7.5,7.5,7.5H384v8.5c0,6.046,1.716,11.698,4.681,16.5h-71.913c-6.164-14.479-20.384-24-36.333-24h-49.871
	c-15.948,0-30.169,9.521-36.333,24h-71.913c2.965-4.802,4.681-10.454,4.681-16.5v-8.5h56.5c4.142,0,7.5-3.358,7.5-7.5
	s-3.358-7.5-7.5-7.5H119v-0.5c0-12.958-10.542-23.5-23.5-23.5S72,166.541,72,179.499v0.5H7.5c-4.142,0-7.5,3.358-7.5,7.5
	s3.358,7.5,7.5,7.5H64v8.5c0,17.369,14.131,31.5,31.5,31.5h93.594l-3.393,10.178c-10.68,2.996-19.225,11.492-22.022,22.683
	l-18.035,72.14H135.5c-4.142,0-7.5,3.358-7.5,7.5s3.358,7.5,7.5,7.5h15.978c0.009,0,0.019,0.002,0.028,0.002
	c0.007,0,0.013-0.002,0.02-0.002H167.5c4.142,0,7.5-3.358,7.5-7.5s-3.358-7.5-7.5-7.5h-6.394l17.125-68.502
	c1.84-7.358,8.422-12.498,16.008-12.498h122.522c7.585,0,14.168,5.14,16.008,12.498l17.125,68.502H343.5c-4.142,0-7.5,3.358-7.5,7.5
	s3.358,7.5,7.5,7.5h15.974c0.007,0,0.013,0.002,0.02,0.002c0.009,0,0.019-0.002,0.028-0.002H375.5c4.142,0,7.5-3.358,7.5-7.5
	s-3.358-7.5-7.5-7.5h-10.144l-18.035-72.14c-2.797-11.191-11.343-19.687-22.022-22.683l-3.393-10.178H415.5
	c17.369,0,31.5-14.131,31.5-31.5v-8.5h56.5c4.142,0,7.5-3.358,7.5-7.5S507.642,179.999,503.5,179.999z M407,179.499
	c0-4.687,3.813-8.5,8.5-8.5s8.5,3.813,8.5,8.5v0.5h-17V179.499z M87,179.499c0-4.687,3.813-8.5,8.5-8.5s8.5,3.813,8.5,8.5v0.5H87
	V179.499z M79,203.499v-8.5h33v8.5c0,9.098-7.402,16.5-16.5,16.5S79,212.597,79,203.499z M201.906,243.999l4.753-14.259
	c0.002-0.005,0.004-0.01,0.005-0.016l0.658-1.974c2.625-7.874,8.961-13.701,16.678-15.842v15.59c0,4.142,3.358,7.5,7.5,7.5
	s7.5-3.358,7.5-7.5v-16.5h33v16.5c0,4.142,3.358,7.5,7.5,7.5s7.5-3.358,7.5-7.5v-15.59c7.717,2.142,14.054,7.968,16.678,15.843
	l0.658,1.974c0.001,0.004,0.003,0.008,0.004,0.012l4.754,14.261H201.906z M432,203.499c0,9.098-7.402,16.5-16.5,16.5
	s-16.5-7.402-16.5-16.5v-8.5h33V203.499z"/>
<g>
</g>
<g>
</g>
<g>
</g>
<g>
</g>
<g>
</g>
<g>
</g>
<g>
</g>
<g>
</g>
<g>
</g>
<g>
</g>
<g>
</g>
<g>
</g>
<g>
</g>
<g>
</g>
<g>
</g>
</svg>
